<svg xmlns="http://www.w3.org/2000/svg" width="512" height="512" fill="none" viewBox="0 0 393 393">
<rect x="0" y="0" width="393" height="393" fill="#0F0F0F"/>
<path stroke="#F5A623" stroke-linecap="round" stroke-linejoin="round" stroke-width="35" d="M196.626 350c52.26 0 94.626-42.365 94.626-94.626 0-52.26-42.366-94.626-94.626-94.626S102 203.114 102 255.374 144.365 350 196.626 350"/>
<path stroke="#F5A623" stroke-linecap="round" stroke-linejoin="round" stroke-width="35" d="M196.626 286.916c17.42 0 31.542-14.122 31.542-31.542s-14.122-31.542-31.542-31.542-31.542 14.122-31.542 31.542 14.122 31.542 31.542 31.542M85 141c31.445-25.2 71.076-39 112-39s80.555 13.8 112 39"/>
<path stroke="#F5A623" stroke-linecap="round" stroke-linejoin="round" stroke-width="35" d="M30 105c45.99-39.955 105.192-62 166.5-62S317.009 65.045 363 105"/>
</svg>
