<svg width="1024" height="500" viewBox="0 0 1024 500" xmlns="http://www.w3.org/2000/svg">
  <rect width="1024" height="500" fill="#0F0F0F"/>
  <rect x="0" y="408" width="1024" height="92" fill="#171717"/>
  <g transform="translate(105 66) scale(0.72)">
    <path stroke="#F5A623" stroke-linecap="round" stroke-linejoin="round" stroke-width="35" fill="none" d="M196.626 350c52.26 0 94.626-42.365 94.626-94.626 0-52.26-42.366-94.626-94.626-94.626S102 203.114 102 255.374 144.365 350 196.626 350"/>
    <path stroke="#F5A623" stroke-linecap="round" stroke-linejoin="round" stroke-width="35" fill="none" d="M196.626 286.916c17.42 0 31.542-14.122 31.542-31.542s-14.122-31.542-31.542-31.542-31.542 14.122-31.542 31.542 14.122 31.542 31.542 31.542M85 141c31.445-25.2 71.076-39 112-39s80.555 13.8 112 39"/>
    <path stroke="#F5A623" stroke-linecap="round" stroke-linejoin="round" stroke-width="35" fill="none" d="M30 105c45.99-39.955 105.192-62 166.5-62S317.009 65.045 363 105"/>
  </g>
  <text x="420" y="205" fill="#FFFFFF" font-family="Arial, Helvetica, sans-serif" font-size="68" font-weight="700">RadarLite</text>
  <text x="424" y="270" fill="#F5A623" font-family="Arial, Helvetica, sans-serif" font-size="34">Passive speed camera alerts</text>
  <text x="424" y="330" fill="#D8D8D8" font-family="Arial, Helvetica, sans-serif" font-size="26">Open source. No ads. No analytics.</text>
</svg>
